<svg width="117" height="32" viewBox="0 0 117 32" fill="none" xmlns="http://www.w3.org/2000/svg">
<path d="M31.5072 29.7759C30.6392 29.6719 29.8691 29.3134 29.2111 28.7005C28.553 28.0877 27.979 27.2782 27.503 26.2953C27.0269 25.3009 26.6349 24.1676 26.3269 22.8725C26.0049 21.5774 25.7809 20.2245 25.6269 18.8022C25.4728 17.3798 25.3888 15.9228 25.3888 14.4427C25.3748 12.9626 25.4308 11.5287 25.5568 10.1526C25.6828 8.76499 25.8508 7.46988 26.0889 6.25571C26.3269 5.04154 26.6069 3.98926 26.9569 3.11043C27.3349 2.09284 27.727 1.36435 28.119 0.924938C28.511 0.485523 28.9171 0.207984 29.3091 0.115476C29.7151 0.0114043 30.1071 0.0229791 30.4991 0.127051C30.8912 0.231123 31.2692 0.335195 31.6332 0.416139C32.5293 0.763045 33.2573 1.26028 33.8314 1.89627C34.4054 2.53227 34.6574 3.37638 34.5734 4.40554C34.4334 6.15163 34.1674 7.73586 33.7754 9.15817C33.3833 10.5805 32.9493 11.8525 32.4593 12.9741C31.9693 14.0958 31.4792 15.0787 30.9752 15.9113C30.4711 16.7438 30.0231 17.4377 29.6451 17.9812C29.6871 19.0681 29.7571 20.0857 29.8551 21.0686C29.9531 22.0399 30.0791 22.9072 30.2331 23.6473C30.3871 24.3989 30.5692 24.9887 30.7792 25.4281C30.9892 25.8675 31.2412 26.0872 31.5212 26.0872C31.8713 26.0872 32.1933 25.8906 32.5153 25.4859C32.8373 25.0812 33.1453 24.5724 33.4253 23.9248C33.7054 23.2888 33.9714 22.5603 34.2234 21.7624C34.4754 20.9645 34.7134 20.1666 34.9234 19.3688C35.1335 18.5709 35.3155 17.8077 35.4695 17.1023C35.6235 16.3854 35.7495 15.7841 35.8475 15.2984C35.9735 14.7318 36.1695 14.3386 36.4636 14.1074C36.7576 13.8877 37.0516 13.7951 37.3596 13.8414C37.6537 13.8876 37.9197 14.0611 38.1297 14.3618C38.3397 14.6624 38.4097 15.0556 38.3257 15.5297C38.0036 17.7152 37.5836 19.6925 37.0656 21.4618C36.5476 23.231 35.9875 24.7458 35.3715 25.9831C34.7554 27.2204 34.1114 28.1686 33.4394 28.8278C32.7673 29.5216 32.1233 29.8222 31.5072 29.7759ZM29.9251 8.57999C29.8271 9.22755 29.7571 9.97918 29.7011 10.8233C29.6451 11.6675 29.6031 12.5694 29.5611 13.5176C30.3032 11.9218 30.8632 10.4995 31.2272 9.25066C31.5912 8.0018 31.8292 6.93796 31.9412 6.07069C32.0533 5.19186 32.0812 4.53274 32.0252 4.08176C31.9692 3.63078 31.9133 3.41109 31.8293 3.41109C31.5492 3.44578 31.2272 3.88519 30.8492 4.74089C30.4711 5.60816 30.1631 6.88015 29.9251 8.57999Z" fill="#1C1C24"/>
<path d="M1.48935 0.311379C1.61535 0.161053 1.81137 0.0685211 2.10539 0.0338305C2.39941 -0.000860154 2.72143 -0.000860154 3.07146 0.0338305C3.42148 0.0685211 3.79952 0.126367 4.17754 0.207312C4.55557 0.288257 4.90559 0.380742 5.22761 0.473251C5.53563 0.565759 5.78765 0.658256 5.96966 0.750764C6.15167 0.843272 6.2357 0.901094 6.20769 0.935785C5.89967 1.46771 5.64763 2.26561 5.43762 3.34102C5.2276 4.41643 5.0456 5.65372 4.91959 7.05291C4.79358 8.4521 4.69559 9.96692 4.62558 11.6089C4.56958 13.251 4.52757 14.9046 4.52757 16.5697C4.52757 18.2349 4.54158 19.8653 4.58358 21.4611C4.62558 23.0568 4.69558 24.5138 4.79359 25.8321C5.66164 25.8205 6.57171 25.728 7.55177 25.5661C8.51783 25.4043 9.4559 25.2192 10.352 24.988C11.248 24.7567 12.0741 24.537 12.8301 24.3057C13.5862 24.0744 14.1882 23.8663 14.6642 23.6813C14.7902 23.5656 14.9162 23.6582 15.0562 23.9819C15.1963 24.2942 15.3363 24.722 15.4763 25.2539C15.6163 25.7858 15.7423 26.3756 15.8543 27.0231C15.9663 27.6707 16.0503 28.272 16.1063 28.8386C16.1623 29.3937 16.1763 29.8562 16.1483 30.2147C16.1203 30.5731 16.0363 30.7235 15.9243 30.6772C14.1742 30.9894 12.4241 31.2669 10.688 31.5098C8.95185 31.7526 7.27176 31.8798 5.63365 31.8914C5.40964 31.9955 5.0596 32.0186 4.56957 31.9839C4.09353 31.9376 3.57551 31.8567 3.04347 31.7295C2.51144 31.6023 2.02141 31.4635 1.55938 31.3016C1.11135 31.1398 0.803305 30.9894 0.663296 30.8391C0.607292 30.7929 0.537281 30.3997 0.481277 29.6596C0.425273 28.9195 0.355291 27.9482 0.285286 26.734C0.215282 25.5314 0.159271 24.1438 0.103267 22.5712C0.0472637 21.0101 0.0192515 19.3681 0.00525061 17.6682C-0.00875031 15.9684 0.00524891 14.2454 0.0472517 12.4993C0.0892545 10.7648 0.159264 9.11122 0.271272 7.56171C0.383279 6.00063 0.537313 4.58987 0.733326 3.32945C0.971342 2.06902 1.20933 1.06301 1.48935 0.311379Z" fill="#1C1C24"/>
<path d="M28.5818 14.3962C28.3718 14.0955 28.1198 13.922 27.8118 13.8758C27.5038 13.8295 27.2097 13.9105 26.9157 14.1418C26.6217 14.3615 26.4117 14.7662 26.2997 15.3328C26.2016 15.8185 26.0757 16.4198 25.9216 17.1251C25.7676 17.8421 25.5996 18.5937 25.3896 19.3916C25.1936 20.1895 24.9696 20.9874 24.7036 21.7852C24.4515 22.5831 24.1715 23.3001 23.8915 23.9477C23.5975 24.5836 23.2894 25.104 22.9674 25.5087C22.6454 25.9019 22.3094 26.11 21.9734 26.11C21.6513 26.11 21.3993 25.8672 21.2173 25.4046C21.0353 24.9305 20.9093 24.3177 20.8393 23.566C20.7693 22.8144 20.7413 21.9819 20.7693 21.0568C20.7833 20.1317 20.8393 19.2181 20.9093 18.3278C20.9793 17.4258 21.0633 16.5932 21.1753 15.8185C21.2733 15.0437 21.3713 14.4424 21.4833 14.0145C21.5253 13.7833 21.4414 13.552 21.2594 13.3092C21.0633 13.0779 20.8113 12.8698 20.5033 12.6732C20.1953 12.4766 19.8312 12.3263 19.4532 12.1875C19.0612 12.0488 18.6831 11.9678 18.3331 11.9331C17.9831 11.8984 17.6751 11.9331 17.4231 12.0256C17.1711 12.1181 17.031 12.28 16.989 12.5344C16.863 13.2167 16.779 14.0146 16.695 14.905C16.625 15.8069 16.569 16.7435 16.541 17.738C16.513 18.7325 16.513 19.7154 16.527 20.7098C16.541 21.7043 16.597 22.6294 16.667 23.4851C16.737 24.3408 16.849 25.0924 16.989 25.7284C17.1291 26.376 17.3111 26.827 17.5351 27.116C18.1791 27.9602 18.8092 28.6077 19.4392 29.0356C20.0692 29.475 20.8533 29.741 21.7913 29.8566C22.5054 29.9375 23.2054 29.6484 23.8915 28.9778C24.5915 28.3071 25.2496 27.3473 25.8656 26.0985C26.4957 24.838 27.0557 23.3232 27.5598 21.5308C28.0638 19.7385 28.4838 17.7611 28.8058 15.5756C28.8618 15.0784 28.7918 14.6968 28.5818 14.3962Z" fill="#1C1C24"/>
<path d="M71.2422 4.6601C71.2422 4.97232 71.0882 5.31924 70.7521 5.68928C70.4301 6.05931 70.0381 6.41778 69.5621 6.77625C69.0861 7.13472 68.582 7.47007 68.022 7.79385C67.4619 8.10606 66.9579 8.37202 66.4819 8.58016C66.0058 8.7883 65.6138 8.92705 65.3198 8.99643C65.0117 9.06581 64.8718 9.01957 64.8998 8.86925C64.8578 8.60329 64.8717 8.27949 64.9277 7.90946C64.9837 7.53942 65.0258 7.18098 65.0258 6.8572C65.0258 6.53343 64.9698 6.26745 64.8718 6.04774C64.7738 5.82804 64.5357 5.75865 64.1717 5.82803C63.9477 5.87429 63.5977 5.98992 63.1076 6.15181C62.6176 6.3137 62.0716 6.52185 61.4695 6.77625C60.8675 7.03065 60.2515 7.30818 59.6214 7.60883C58.9914 7.92104 58.4173 8.23326 57.8993 8.54547C57.3673 8.85769 56.9473 9.1699 56.6112 9.48211C56.2752 9.79433 56.1072 10.0603 56.1072 10.2915C56.1072 10.4881 56.4572 10.7194 57.1572 10.9738C57.8573 11.2282 58.7254 11.5173 59.7894 11.8411C60.8535 12.1649 62.0016 12.5349 63.2756 12.9396C64.5357 13.3443 65.7258 13.7953 66.8319 14.2926C67.938 14.7782 68.89 15.3217 69.6881 15.8999C70.4861 16.478 70.9622 17.1025 71.1302 17.7732C71.2142 18.1085 71.2842 18.5364 71.3262 19.0567C71.3822 19.5771 71.3822 20.1668 71.3542 20.8028C71.3262 21.4388 71.2422 22.1211 71.1302 22.8496C71.0042 23.5781 70.8222 24.2834 70.5561 25.0004C70.2901 25.7057 69.9541 26.3996 69.5341 27.0702C69.114 27.7409 68.582 28.3538 67.966 28.8857C67.0839 29.6374 66.0618 30.1808 64.9138 30.5509C63.7657 30.9093 62.5896 31.1291 61.3995 31.1984C60.2094 31.2678 59.0474 31.2216 57.8993 31.0597C56.7652 30.8978 55.7711 30.6665 54.9171 30.389C54.4831 30.2271 54.119 29.9727 53.825 29.6374C53.545 29.302 53.321 28.932 53.181 28.5273C53.027 28.1225 52.929 27.6831 52.873 27.2206C52.831 26.758 52.803 26.2955 52.831 25.8445C52.845 25.4629 52.901 25.0004 52.971 24.4684C53.041 23.9365 53.139 23.4277 53.265 22.9421C53.433 22.3639 53.601 21.8898 53.797 21.5198C53.993 21.1497 54.1611 21.011 54.3291 21.0919C54.5671 21.196 54.7351 21.3463 54.8191 21.5545C54.9031 21.7626 54.9731 21.9938 55.0571 22.2598C55.1411 22.5142 55.2531 22.7918 55.3931 23.0808C55.5331 23.3699 55.7712 23.659 56.1212 23.9481C56.5412 24.295 57.1012 24.5725 57.7733 24.7575C58.4453 24.9541 59.1594 25.0698 59.9154 25.1045C60.6715 25.1507 61.4415 25.116 62.2256 25.0004C63.0096 24.8963 63.7377 24.6997 64.4097 24.4338C65.0818 24.1678 65.6418 23.8325 66.1178 23.4277C66.5939 23.023 66.9159 22.5373 67.0699 21.9707C67.1679 21.5891 66.9719 21.196 66.4679 20.8144C65.9638 20.4212 65.2778 20.0396 64.4237 19.6465C63.5697 19.2533 62.6036 18.8602 61.5395 18.4554C60.4755 18.0623 59.4394 17.6575 58.4313 17.2412C57.4373 16.8365 56.5412 16.4202 55.7431 15.9924C54.9451 15.5645 54.3851 15.1367 54.0631 14.7088C53.783 14.3504 53.517 13.8878 53.265 13.3328C53.013 12.7777 52.7889 12.2111 52.5929 11.6098C52.3969 11.0085 52.2569 10.4187 52.1589 9.82901C52.0609 9.23927 52.0189 8.70735 52.0329 8.24481C52.1169 7.48161 52.4529 6.74154 53.069 6.03617C53.671 5.33079 54.4271 4.67168 55.3371 4.05881C56.2472 3.44595 57.2553 2.90246 58.3613 2.39366C59.4674 1.89643 60.5735 1.46859 61.6796 1.11012C62.7856 0.751655 63.8217 0.474105 64.8158 0.289088C65.8098 0.0925083 66.6219 0 67.2659 0C67.812 0 68.33 0.115645 68.82 0.335352C69.31 0.55506 69.7441 0.878847 70.1081 1.28357C70.4721 1.68829 70.7522 2.18551 70.9622 2.75213C71.1442 3.31874 71.2422 3.95473 71.2422 4.6601Z" fill="#1C1C24"/>
<path d="M74.5457 1.28176C74.5877 1.02736 74.7417 0.842332 75.0357 0.726697C75.3158 0.611062 75.6518 0.5417 76.0298 0.530137C76.4079 0.518573 76.8139 0.541685 77.2339 0.622629C77.6539 0.692011 78.046 0.807645 78.396 0.946407C78.746 1.08517 79.026 1.25863 79.236 1.45521C79.446 1.65179 79.53 1.85994 79.502 2.07965C79.446 2.36874 79.376 2.75032 79.292 3.25911C79.208 3.75635 79.138 4.34607 79.068 5.01676C78.998 5.68745 78.928 6.42752 78.872 7.2254C78.816 8.02328 78.746 8.86745 78.69 9.74628C79.334 9.74628 79.8941 9.75783 80.3841 9.76939C80.8741 9.78096 81.2242 9.80409 81.4482 9.81566C81.6442 9.82722 81.8262 10.0122 81.9802 10.3823C82.1342 10.7407 82.2462 11.1339 82.3162 11.5617C82.3862 11.9896 82.4142 12.3827 82.3862 12.7528C82.3582 13.1228 82.2882 13.3194 82.1762 13.3541C81.9102 13.435 81.4482 13.5275 80.7761 13.6316C80.1041 13.7241 79.334 13.8282 78.494 13.9091C78.438 15.4355 78.396 16.9388 78.396 18.4074C78.396 19.8759 78.438 21.171 78.522 22.3158C78.606 23.4606 78.732 24.3742 78.914 25.068C79.096 25.7733 79.334 26.1202 79.642 26.1202C79.9781 26.1202 80.3141 25.9236 80.6361 25.5189C80.9581 25.1142 81.2662 24.6054 81.5462 23.9578C81.8262 23.3218 82.0922 22.5933 82.3442 21.7955C82.5962 20.9976 82.8343 20.1997 83.0443 19.4018C83.2543 18.6039 83.4363 17.8407 83.5903 17.1238C83.7443 16.4068 83.8703 15.8056 83.9683 15.3315C84.0803 14.7648 84.2904 14.3717 84.5844 14.1404C84.8784 13.9207 85.1724 13.8282 85.4805 13.8744C85.7745 13.9207 86.0405 14.0942 86.2505 14.3948C86.4605 14.6955 86.5305 15.0886 86.4465 15.5627C86.1245 17.7482 85.7185 19.7256 85.2004 21.518C84.6964 23.3103 84.1364 24.8251 83.5063 26.0855C82.8763 27.346 82.2182 28.3057 81.5182 28.9649C80.8181 29.6356 80.1181 29.9246 79.418 29.8437C78.466 29.728 77.6819 29.4505 77.0519 29.0227C76.4218 28.5833 75.7778 27.9473 75.1197 27.1031C74.7137 26.5712 74.4197 25.2067 74.2237 23.0212C74.0277 20.8357 73.9577 17.9101 73.9997 14.2445C73.6357 14.256 73.3276 14.2676 73.0896 14.2561C72.8516 14.2445 72.6696 14.2329 72.5716 14.1982C72.4456 14.2098 72.3336 14.1289 72.2216 13.9323C72.1096 13.7357 72.0116 13.5044 71.9136 13.2269C71.8295 12.9494 71.7596 12.6256 71.7035 12.2787C71.6475 11.9318 71.6195 11.5964 71.6195 11.2958C71.6055 10.9836 71.6195 10.7291 71.6615 10.5094C71.7035 10.2897 71.7735 10.1626 71.8716 10.1047C72.3756 9.96598 73.1036 9.88501 74.0837 9.8272C74.1257 8.53208 74.1817 7.16759 74.2657 5.75684C74.3497 4.33453 74.4477 2.8544 74.5457 1.28176Z" fill="#1C1C24"/>
<path d="M91.0249 11.7487C91.0669 11.4943 91.2069 11.3324 91.459 11.2515C91.711 11.1706 92.005 11.1358 92.355 11.159C92.7051 11.1821 93.0691 11.2631 93.4611 11.3903C93.8531 11.529 94.2172 11.6909 94.5392 11.8759C94.8612 12.0725 95.1132 12.2806 95.2952 12.5004C95.4772 12.7201 95.5473 12.9513 95.5052 13.1826C95.3372 13.8764 95.2112 14.4662 95.1272 14.9403C95.0432 15.4144 94.9592 15.8538 94.8892 16.247C94.8192 16.6517 94.7632 17.0564 94.7212 17.4727C94.6792 17.889 94.6232 18.3862 94.5672 18.9644C94.4692 19.982 94.4272 20.9186 94.4272 21.7859C94.4412 22.6531 94.4832 23.4048 94.5812 24.0408C94.6652 24.6883 94.8052 25.1856 94.9872 25.544C95.1692 25.9025 95.3932 26.076 95.6592 26.076C95.9953 26.076 96.3313 25.8794 96.6533 25.4746C96.9753 25.0699 97.2833 24.5612 97.5774 23.9136C97.8714 23.2776 98.1374 22.5491 98.3894 21.7512C98.6415 20.9533 98.8655 20.1554 99.0755 19.3576C99.2715 18.5597 99.4535 17.7965 99.6075 17.0911C99.7615 16.3741 99.8875 15.7728 99.9855 15.2987C100.112 14.7321 100.308 14.3274 100.588 14.0961C100.868 13.8649 101.162 13.7724 101.456 13.8186C101.75 13.8649 102.002 14.0499 102.212 14.339C102.422 14.6396 102.506 15.0328 102.464 15.5416C102.366 16.6864 102.184 17.8427 101.932 19.0106C101.68 20.1785 101.372 21.3002 101.008 22.364C100.644 23.4395 100.238 24.4455 99.7895 25.3706C99.3415 26.3072 98.8795 27.1051 98.3894 27.7758C97.8994 28.4465 97.3954 28.9668 96.8913 29.3369C96.3873 29.7069 95.8973 29.8572 95.4352 29.811C94.4832 29.6953 93.6991 29.4178 93.0831 28.99C92.453 28.5506 91.823 27.9146 91.1789 27.0704C90.9969 26.8507 90.8429 26.4807 90.7309 25.9488C90.2409 27.0357 89.7788 27.8914 89.3028 28.5159C88.8408 29.1519 88.3507 29.441 87.8187 29.3947C87.0767 29.3253 86.4046 29.1172 85.8026 28.7703C85.2145 28.4234 84.6965 28.0186 84.2765 27.5561C83.8564 27.1051 83.5204 26.6426 83.2824 26.18C83.0444 25.7175 82.8904 25.3475 82.8344 25.0699C82.6524 24.3183 82.5684 23.4395 82.5684 22.4219C82.5684 21.4043 82.6384 20.3636 82.7784 19.2882C82.9184 18.2128 83.1284 17.1489 83.3944 16.0966C83.6604 15.0443 83.9825 14.0846 84.3465 13.2404C84.7105 12.3963 85.1025 11.6909 85.5366 11.1474C85.9706 10.604 86.4326 10.2802 86.9087 10.1992C87.3567 10.2686 87.9587 10.4883 88.7288 10.8699C89.4988 11.2515 90.2269 11.7719 90.9129 12.4194L91.0249 11.7487ZM87.5247 25.5787C87.7067 25.5787 87.9307 25.4053 88.2107 25.0584C88.4908 24.7115 88.7708 24.2142 89.0648 23.5667C89.3588 22.9191 89.6248 22.1212 89.8768 21.1846C90.1289 20.2479 90.3109 19.1725 90.4369 17.9815C90.4509 17.6924 90.4789 17.4149 90.4789 17.1489C90.4929 16.8714 90.5209 16.5939 90.5489 16.3163C90.5489 16.0619 90.5349 15.8075 90.5069 15.5531C90.4789 15.2987 90.4369 15.0559 90.3669 14.8362C90.3109 14.6165 90.2269 14.4315 90.1429 14.2927C90.0589 14.1424 89.9468 14.0614 89.8208 14.0383C89.5408 14.0268 89.2328 14.2927 88.8968 14.8593C88.5608 15.4259 88.2388 16.1313 87.9307 16.987C87.6227 17.8427 87.3427 18.7678 87.1187 19.7738C86.8946 20.7683 86.7266 21.705 86.6426 22.5722C86.5586 23.4395 86.5866 24.1564 86.6987 24.7346C86.8247 25.2896 87.1047 25.5787 87.5247 25.5787Z" fill="#1C1C24"/>
<path d="M100.041 8.57933C99.9993 8.20929 100.069 7.93177 100.237 7.71206C100.405 7.50392 100.629 7.36514 100.895 7.29575C101.175 7.22637 101.469 7.2264 101.777 7.28422C102.085 7.34203 102.379 7.44609 102.645 7.59642C102.911 7.74674 103.107 7.93175 103.247 8.16302C103.387 8.38273 103.415 8.63713 103.331 8.89153C103.317 9.26156 103.275 9.60847 103.247 9.94381C103.205 10.2445 103.177 10.5567 103.163 10.8805C103.135 11.2042 103.107 11.5049 103.065 11.794C103.065 11.8634 103.051 11.9327 103.037 12.0252C103.023 12.1062 103.051 12.1293 103.163 12.0947C103.359 12.06 103.667 12.0021 104.088 11.9212C104.508 11.8402 104.956 11.7709 105.446 11.7246C105.936 11.6784 106.44 11.6552 106.958 11.6668C107.476 11.6783 107.938 11.7477 108.33 11.8981C108.736 12.0368 109.044 12.2565 109.268 12.5687C109.492 12.8809 109.562 13.2973 109.478 13.8292C109.394 14.2802 109.31 14.8699 109.198 15.5984C109.1 16.3385 109.002 17.1132 108.904 17.9573C108.82 18.8015 108.75 19.6456 108.694 20.5013C108.638 21.357 108.638 22.1318 108.68 22.8256C108.722 23.5194 108.806 24.086 108.946 24.5255C109.086 24.9649 109.31 25.1846 109.618 25.1846C109.954 25.1846 110.29 24.9995 110.598 24.6526C110.906 24.2942 111.214 23.8316 111.508 23.265C111.802 22.6984 112.068 22.0508 112.306 21.3339C112.544 20.617 112.768 19.8769 112.978 19.1484C113.174 18.4199 113.356 17.7145 113.51 17.0554C113.664 16.3847 113.79 15.8181 113.888 15.3324C114.014 14.7658 114.21 14.3726 114.49 14.1298C114.77 13.8985 115.064 13.806 115.344 13.8523C115.638 13.8986 115.89 14.072 116.1 14.3727C116.31 14.6733 116.394 15.078 116.352 15.5753C116.254 16.72 116.072 17.888 115.82 19.0559C115.568 20.2354 115.26 21.357 114.896 22.444C114.532 23.5194 114.126 24.537 113.664 25.4736C113.216 26.4103 112.74 27.2197 112.25 27.8904C111.774 28.5611 111.27 29.0815 110.766 29.44C110.262 29.7984 109.772 29.9372 109.31 29.8562C108.162 29.6365 107.238 29.2896 106.524 28.8155C105.824 28.3414 105.278 27.6823 104.886 26.8382C104.508 25.994 104.256 24.9417 104.158 23.6813C104.06 22.4209 104.046 20.8829 104.13 19.0906V18.9634C104.13 18.9287 104.144 18.7552 104.186 18.4546C104.228 18.1424 104.242 17.807 104.242 17.437C104.242 17.067 104.214 16.7316 104.172 16.4078C104.116 16.0956 104.003 15.899 103.821 15.8297C103.653 15.7603 103.443 15.7719 103.177 15.8528C102.897 15.9337 102.617 16.0378 102.323 16.165C102.029 16.2922 101.749 16.4078 101.455 16.5235C101.175 16.6391 100.923 16.6969 100.727 16.6969C100.531 16.6969 100.363 16.6507 100.223 16.5466C100.097 16.4425 99.9992 16.3384 99.9292 16.2228C99.8732 16.1072 99.8312 15.9916 99.8032 15.8875C99.7752 15.7834 99.7752 15.7024 99.8032 15.6446C100.027 14.4998 100.125 13.3319 100.125 12.164C100.195 11.0077 100.153 9.80506 100.041 8.57933Z" fill="#1C1C24"/>
<path fill-rule="evenodd" clip-rule="evenodd" d="M23.4152 4.53346C23.4152 4.55658 23.4012 4.57971 23.4012 4.60283C23.3732 4.71847 23.3032 4.82253 23.2192 4.91504C23.0932 5.0538 22.9251 5.18101 22.7571 5.28508C22.4911 5.44697 22.1831 5.5973 21.8891 5.7245C21.5111 5.89795 21.1191 6.0367 20.727 6.17546C20.713 6.17546 20.699 6.18703 20.699 6.18703C20.741 6.26798 20.769 6.33736 20.811 6.40674C20.979 6.76521 21.133 7.11211 21.273 7.48214C21.371 7.73654 21.4551 8.00252 21.5111 8.25692C21.5391 8.41881 21.567 8.58069 21.567 8.75414C21.567 8.90447 21.5251 9.04324 21.4271 9.15887C21.3151 9.29763 21.147 9.37856 20.937 9.39012C20.741 9.40168 20.573 9.35545 20.391 9.29763C20.209 9.23981 20.041 9.14729 19.8729 9.06634C19.4529 8.84664 19.0749 8.60381 18.6829 8.34941C18.3888 8.15283 18.0949 7.95627 17.8008 7.75969C17.7868 7.74813 17.7868 7.74811 17.7728 7.73654C17.7728 7.73654 17.7728 7.74813 17.7588 7.75969C17.4368 8.03722 17.1148 8.31472 16.7647 8.56912C16.4987 8.77726 16.2187 8.96229 15.8967 9.12418C15.7287 9.20513 15.5607 9.28605 15.3787 9.32074C15.2247 9.35543 15.0846 9.35543 14.9306 9.32074C14.7346 9.26292 14.5946 9.14729 14.5106 8.99696C14.4546 8.88133 14.4266 8.75416 14.4126 8.62696C14.3986 8.41881 14.4266 8.22221 14.4546 8.02563C14.5246 7.59778 14.6646 7.1815 14.8046 6.76521C14.8746 6.56863 14.9446 6.38362 15.0146 6.19861C15.0286 6.17548 15.0147 6.16391 15.0007 6.15234C14.8606 6.04827 14.7066 5.95578 14.5386 5.87483C14.2026 5.70138 13.8806 5.53948 13.5445 5.36603C13.3345 5.2504 13.1245 5.13475 12.9285 4.99599C12.7885 4.90348 12.6765 4.78786 12.5925 4.6491C12.5645 4.59128 12.5365 4.52189 12.5225 4.46408C12.5225 4.45251 12.5225 4.4525 12.5225 4.4525C12.5225 4.41781 12.5225 4.39468 12.5225 4.37155V4.36001C12.5365 4.25594 12.5925 4.17498 12.6765 4.09404C12.7885 3.98996 12.9145 3.92057 13.0685 3.86275C13.2645 3.78181 13.4605 3.73556 13.6705 3.6893C14.0486 3.60836 14.4266 3.55055 14.8046 3.51586C15.1686 3.48117 15.5327 3.44648 15.8967 3.41179C15.9247 3.41179 15.9387 3.40023 15.9527 3.3771C16.1627 2.97238 16.3587 2.57921 16.5827 2.17448C16.7227 1.90852 16.8767 1.64258 17.0728 1.39975C17.1428 1.29567 17.2268 1.20314 17.3248 1.1222C17.4368 1.02969 17.5628 0.948764 17.7308 0.925637C17.7588 0.925637 17.7728 0.914062 17.8008 0.914062C17.8288 0.914062 17.8708 0.914062 17.8988 0.914062C17.9268 0.914062 17.9548 0.925637 17.9828 0.925637C18.1228 0.960328 18.2488 1.01815 18.3469 1.11066C18.4869 1.22629 18.5989 1.37659 18.6969 1.51535C18.9069 1.81601 19.0749 2.12824 19.2289 2.44046C19.3829 2.72955 19.5229 3.01861 19.677 3.31926C19.677 3.33083 19.6909 3.34241 19.7049 3.34241C19.901 3.35398 20.111 3.36555 20.307 3.38868C20.517 3.4118 20.713 3.42336 20.923 3.45806C21.175 3.49275 21.413 3.52743 21.6651 3.56212C21.9451 3.60838 22.2111 3.6662 22.4771 3.74714C22.6872 3.80496 22.8971 3.88588 23.0652 4.01308C23.2052 4.10559 23.3032 4.22125 23.3452 4.36001C23.4152 4.37157 23.4292 4.49876 23.4152 4.53346ZM22.4071 5.03068C22.4071 5.05381 22.3931 5.06538 22.3931 5.07694C22.3651 5.16945 22.3091 5.25039 22.2391 5.31977C22.1411 5.4354 22.0151 5.51634 21.8751 5.59728C21.6651 5.72448 21.4411 5.82855 21.2031 5.92106C20.909 6.04826 20.615 6.15234 20.307 6.25641C20.293 6.25641 20.293 6.25642 20.279 6.26799C20.307 6.3258 20.335 6.38361 20.349 6.44143C20.461 6.73052 20.573 7.00803 20.671 7.29712C20.727 7.50527 20.797 7.70186 20.825 7.92156C20.853 8.04876 20.867 8.17596 20.853 8.31472C20.839 8.43036 20.811 8.53443 20.741 8.6385C20.643 8.74257 20.517 8.80038 20.363 8.81194C20.223 8.81194 20.083 8.77728 19.957 8.73103C19.8169 8.67321 19.6909 8.60381 19.5649 8.53443C19.2569 8.36098 18.9769 8.15282 18.6969 7.94468C18.4729 7.78279 18.2629 7.62092 18.0528 7.45903C18.0528 7.45903 18.0388 7.44748 18.0248 7.43591C18.0248 7.43591 18.0248 7.44745 18.0108 7.44745C17.7588 7.6556 17.5068 7.86374 17.2268 8.06032C17.0168 8.21065 16.7928 8.36099 16.5547 8.47663C16.4287 8.53444 16.3027 8.59226 16.1487 8.61538C16.0367 8.63851 15.9247 8.6385 15.8127 8.60381C15.6587 8.55755 15.5607 8.46507 15.5047 8.33787C15.4627 8.24536 15.4487 8.15285 15.4487 8.04878C15.4487 7.88689 15.4767 7.73656 15.5047 7.57467C15.5747 7.23933 15.6867 6.91554 15.8127 6.59176C15.8687 6.44144 15.9247 6.29111 15.9947 6.15234C16.0087 6.14078 15.9947 6.12922 15.9947 6.11765C15.8827 6.03671 15.7707 5.95575 15.6587 5.88637C15.4207 5.74761 15.1686 5.60885 14.9306 5.45852C14.7766 5.36602 14.6226 5.26196 14.4826 5.14632C14.3846 5.06538 14.3006 4.97288 14.2446 4.86881C14.2166 4.82255 14.2026 4.76473 14.2026 4.71848V4.7069C14.2026 4.68377 14.2026 4.66065 14.2026 4.63752V4.62595C14.2166 4.545 14.2586 4.47563 14.3286 4.41781C14.4126 4.33687 14.5246 4.27906 14.6366 4.24437C14.7766 4.18655 14.9306 4.15184 15.0986 4.11715C15.3786 4.05933 15.6727 4.02467 15.9667 4.00154C16.2467 3.97842 16.5268 3.96683 16.7928 3.9437C16.8208 3.9437 16.8348 3.93215 16.8348 3.92059C17.0028 3.60837 17.1708 3.29614 17.3528 2.99549C17.4648 2.78734 17.5908 2.59077 17.7448 2.39419C17.8008 2.31325 17.8708 2.24388 17.9548 2.18606C18.0528 2.11668 18.1509 2.05885 18.2769 2.03573C18.2909 2.03573 18.3188 2.03572 18.3328 2.02415C18.3608 2.02415 18.3888 2.02415 18.4168 2.02415C18.4308 2.02415 18.4589 2.03573 18.4729 2.03573C18.5849 2.05885 18.6689 2.11668 18.7389 2.18606C18.8369 2.29013 18.9209 2.39421 18.9909 2.52141C19.1309 2.76425 19.2569 3.00706 19.3689 3.26146C19.4669 3.49273 19.579 3.72402 19.677 3.96685C19.677 3.97842 19.6909 3.98997 19.7049 3.98997C19.859 4.00153 19.999 4.02467 20.153 4.03623C20.307 4.05936 20.461 4.08248 20.615 4.10561C20.797 4.1403 20.979 4.17499 21.175 4.20968C21.385 4.25593 21.5811 4.30217 21.7911 4.37155C21.9451 4.42937 22.0991 4.49875 22.2251 4.59126C22.3231 4.6722 22.3931 4.76471 22.4351 4.88035C22.4491 4.90347 22.4491 4.93817 22.4491 4.9613C22.4211 4.98443 22.4211 5.00755 22.4071 5.03068Z" fill="#1C1C24"/>
</svg>
